<?xml version="1.0" encoding="UTF-8"?>
<svg width="700pt" height="700pt" version="1.1" viewBox="0 0 700 700" xmlns="http://www.w3.org/2000/svg" xmlns:xlink="http://www.w3.org/1999/xlink">
 <defs>
  <symbol id="u" overflow="visible">
   <path d="m18.766-1.125c-0.96875 0.5-1.9805 0.875-3.0312 1.125-1.043 0.25781-2.1367 0.39062-3.2812 0.39062-3.3984 0-6.0898-0.94531-8.0781-2.8438-1.9922-1.9062-2.9844-4.4844-2.9844-7.7344 0-3.2578 0.99219-5.8359 2.9844-7.7344 1.9883-1.9062 4.6797-2.8594 8.0781-2.8594 1.1445 0 2.2383 0.13281 3.2812 0.39062 1.0508 0.25 2.0625 0.625 3.0312 1.125v4.2188c-0.98047-0.65625-1.9453-1.1406-2.8906-1.4531-0.94922-0.3125-1.9492-0.46875-3-0.46875-1.875 0-3.3516 0.60547-4.4219 1.8125-1.0742 1.1992-1.6094 2.8555-1.6094 4.9688 0 2.1055 0.53516 3.7617 1.6094 4.9688 1.0703 1.1992 2.5469 1.7969 4.4219 1.7969 1.0508 0 2.0508-0.14844 3-0.45312 0.94531-0.3125 1.9102-0.80078 2.8906-1.4688z"/>
  </symbol>
  <symbol id="b" overflow="visible">
   <path d="m13.734-11.141c-0.4375-0.19531-0.87109-0.34375-1.2969-0.4375-0.41797-0.10156-0.83984-0.15625-1.2656-0.15625-1.2617 0-2.2305 0.40625-2.9062 1.2188-0.67969 0.80469-1.0156 1.9531-1.0156 3.4531v7.0625h-4.8906v-15.312h4.8906v2.5156c0.625-1 1.3438-1.7266 2.1562-2.1875 0.82031-0.46875 1.8008-0.70312 2.9375-0.70312 0.16406 0 0.34375 0.011719 0.53125 0.03125 0.19531 0.011719 0.47656 0.039062 0.84375 0.078125z"/>
  </symbol>
  <symbol id="a" overflow="visible">
   <path d="m17.641-7.7031v1.4062h-11.453c0.125 1.1484 0.53906 2.0078 1.25 2.5781 0.70703 0.57422 1.7031 0.85938 2.9844 0.85938 1.0312 0 2.082-0.14844 3.1562-0.45312 1.082-0.3125 2.1914-0.77344 3.3281-1.3906v3.7656c-1.1562 0.4375-2.3125 0.76562-3.4688 0.98438-1.1562 0.22656-2.3125 0.34375-3.4688 0.34375-2.7734 0-4.9297-0.70312-6.4688-2.1094-1.5312-1.4062-2.2969-3.3789-2.2969-5.9219 0-2.5 0.75391-4.4609 2.2656-5.8906 1.5078-1.4375 3.582-2.1562 6.2188-2.1562 2.4062 0 4.332 0.73047 5.7812 2.1875 1.4453 1.4492 2.1719 3.3828 2.1719 5.7969zm-5.0312-1.625c0-0.92578-0.27344-1.6719-0.8125-2.2344-0.54297-0.57031-1.25-0.85938-2.125-0.85938-0.94922 0-1.7188 0.26562-2.3125 0.79688s-0.96484 1.2969-1.1094 2.2969z"/>
  </symbol>
  <symbol id="d" overflow="visible">
   <path d="m9.2188-6.8906c-1.0234 0-1.793 0.17188-2.3125 0.51562-0.51172 0.34375-0.76562 0.85547-0.76562 1.5312 0 0.625 0.20703 1.1172 0.625 1.4688 0.41406 0.34375 0.98828 0.51562 1.7188 0.51562 0.92578 0 1.7031-0.32812 2.3281-0.98438 0.63281-0.66406 0.95312-1.4922 0.95312-2.4844v-0.5625zm7.4688-1.8438v8.7344h-4.9219v-2.2656c-0.65625 0.92969-1.3984 1.6055-2.2188 2.0312-0.82422 0.41406-1.8242 0.625-3 0.625-1.5859 0-2.8711-0.45703-3.8594-1.375-0.99219-0.92578-1.4844-2.1289-1.4844-3.6094 0-1.7891 0.61328-3.1016 1.8438-3.9375 1.2383-0.84375 3.1797-1.2656 5.8281-1.2656h2.8906v-0.39062c0-0.76953-0.30859-1.332-0.92188-1.6875-0.61719-0.36328-1.5703-0.54688-2.8594-0.54688-1.0547 0-2.0312 0.10547-2.9375 0.3125-0.89844 0.21094-1.7305 0.52344-2.5 0.9375v-3.7344c1.0391-0.25 2.0859-0.44141 3.1406-0.57812 1.0625-0.13281 2.125-0.20312 3.1875-0.20312 2.7578 0 4.75 0.54688 5.9688 1.6406 1.2266 1.0859 1.8438 2.8555 1.8438 5.3125z"/>
  </symbol>
  <symbol id="c" overflow="visible">
   <path d="m7.7031-19.656v4.3438h5.0469v3.5h-5.0469v6.5c0 0.71094 0.14062 1.1875 0.42188 1.4375s0.83594 0.375 1.6719 0.375h2.5156v3.5h-4.1875c-1.9375 0-3.3125-0.39844-4.125-1.2031-0.80469-0.8125-1.2031-2.1797-1.2031-4.1094v-6.5h-2.4219v-3.5h2.4219v-4.3438z"/>
  </symbol>
  <symbol id="k" overflow="visible">
   <path d="m12.766-13.078v-8.2031h4.9219v21.281h-4.9219v-2.2188c-0.66797 0.90625-1.4062 1.5703-2.2188 1.9844s-1.7578 0.625-2.8281 0.625c-1.8867 0-3.4336-0.75-4.6406-2.25-1.2109-1.5-1.8125-3.4258-1.8125-5.7812 0-2.3633 0.60156-4.2969 1.8125-5.7969 1.207-1.5 2.7539-2.25 4.6406-2.25 1.0625 0 2 0.21484 2.8125 0.64062 0.82031 0.42969 1.5664 1.0859 2.2344 1.9688zm-3.2188 9.9219c1.0391 0 1.8359-0.37891 2.3906-1.1406 0.55078-0.76953 0.82812-1.8828 0.82812-3.3438 0-1.457-0.27734-2.5664-0.82812-3.3281-0.55469-0.76953-1.3516-1.1562-2.3906-1.1562-1.043 0-1.8398 0.38672-2.3906 1.1562-0.55469 0.76172-0.82812 1.8711-0.82812 3.3281 0 1.4609 0.27344 2.5742 0.82812 3.3438 0.55078 0.76172 1.3477 1.1406 2.3906 1.1406z"/>
  </symbol>
  <symbol id="g" overflow="visible">
   <path d="m10.5-3.1562c1.0508 0 1.8516-0.37891 2.4062-1.1406 0.55078-0.76953 0.82812-1.8828 0.82812-3.3438 0-1.457-0.27734-2.5664-0.82812-3.3281-0.55469-0.76953-1.3555-1.1562-2.4062-1.1562-1.0547 0-1.8594 0.38672-2.4219 1.1562-0.55469 0.77344-0.82812 1.8828-0.82812 3.3281 0 1.4492 0.27344 2.5586 0.82812 3.3281 0.5625 0.77344 1.3672 1.1562 2.4219 1.1562zm-3.25-9.9219c0.67578-0.88281 1.4219-1.5391 2.2344-1.9688 0.82031-0.42578 1.7656-0.64062 2.8281-0.64062 1.8945 0 3.4453 0.75 4.6562 2.25 1.207 1.5 1.8125 3.4336 1.8125 5.7969 0 2.3555-0.60547 4.2812-1.8125 5.7812-1.2109 1.5-2.7617 2.25-4.6562 2.25-1.0625 0-2.0078-0.21094-2.8281-0.625-0.8125-0.42578-1.5586-1.0859-2.2344-1.9844v2.2188h-4.8906v-21.281h4.8906z"/>
  </symbol>
  <symbol id="f" overflow="visible">
   <path d="m0.34375-15.312h4.8906l4.125 10.391 3.5-10.391h4.8906l-6.4375 16.766c-0.64844 1.6953-1.4023 2.8828-2.2656 3.5625-0.86719 0.6875-2 1.0312-3.4062 1.0312h-2.8438v-3.2188h1.5312c0.83203 0 1.4375-0.13672 1.8125-0.40625 0.38281-0.26172 0.67969-0.73047 0.89062-1.4062l0.14062-0.42188z"/>
  </symbol>
  <symbol id="j" overflow="visible">
   <path d="m14.953-3.7188h-8.2188l-1.3125 3.7188h-5.2812l7.5625-20.406h6.2656l7.5625 20.406h-5.2812zm-6.9062-3.7812h5.5781l-2.7812-8.125z"/>
  </symbol>
  <symbol id="i" overflow="visible">
   <path d="m2.1875-5.9688v-9.3438h4.9219v1.5312c0 0.83594-0.007813 1.875-0.015625 3.125-0.011719 1.25-0.015625 2.0859-0.015625 2.5 0 1.2422 0.03125 2.1328 0.09375 2.6719 0.070313 0.54297 0.17969 0.93359 0.32812 1.1719 0.20703 0.32422 0.47266 0.57422 0.79688 0.75 0.32031 0.16797 0.69141 0.25 1.1094 0.25 1.0195 0 1.8203-0.39062 2.4062-1.1719 0.58203-0.78125 0.875-1.8672 0.875-3.2656v-7.5625h4.8906v15.312h-4.8906v-2.2188c-0.74219 0.89844-1.5234 1.5586-2.3438 1.9844-0.82422 0.41406-1.7344 0.625-2.7344 0.625-1.7617 0-3.1055-0.53906-4.0312-1.625-0.92969-1.082-1.3906-2.6602-1.3906-4.7344z"/>
  </symbol>
  <symbol id="t" overflow="visible">
   <path d="m2.5781-20.406h5.25v20.406h-5.25z"/>
  </symbol>
  <symbol id="s" overflow="visible">
   <path d="m0.98438-15.312h4.7656l2.5625 10.547 2.5781-10.547h4.0938l2.5781 10.438 2.5781-10.438h4.75l-4.0312 15.312h-5.3438l-2.5781-10.531-2.5781 10.531h-5.3438z"/>
  </symbol>
  <symbol id="h" overflow="visible">
   <path d="m17.75-9.3281v9.3281h-4.9219v-7.1406c0-1.3203-0.03125-2.2344-0.09375-2.7344s-0.16797-0.86719-0.3125-1.1094c-0.1875-0.3125-0.44922-0.55469-0.78125-0.73438-0.32422-0.17578-0.69531-0.26562-1.1094-0.26562-1.0234 0-1.8242 0.39844-2.4062 1.1875-0.58594 0.78125-0.875 1.8711-0.875 3.2656v7.5312h-4.8906v-15.312h4.8906v2.2344c0.73828-0.88281 1.5195-1.5391 2.3438-1.9688 0.83203-0.42578 1.75-0.64062 2.75-0.64062 1.7695 0 3.1133 0.54688 4.0312 1.6406 0.91406 1.0859 1.375 2.6562 1.375 4.7188z"/>
  </symbol>
  <symbol id="r" overflow="visible">
   <path d="m12.422-21.281v3.2188h-2.7031c-0.6875 0-1.1719 0.125-1.4531 0.375-0.27344 0.25-0.40625 0.6875-0.40625 1.3125v1.0625h4.1875v3.5h-4.1875v11.812h-4.8906v-11.812h-2.4375v-3.5h2.4375v-1.0625c0-1.6641 0.46094-2.8984 1.3906-3.7031 0.92578-0.80078 2.3672-1.2031 4.3281-1.2031z"/>
  </symbol>
  <symbol id="e" overflow="visible">
   <path d="m9.6406-12.188c-1.0859 0-1.9141 0.39062-2.4844 1.1719-0.57422 0.78125-0.85938 1.9062-0.85938 3.375s0.28516 2.5938 0.85938 3.375c0.57031 0.77344 1.3984 1.1562 2.4844 1.1562 1.0625 0 1.875-0.38281 2.4375-1.1562 0.57031-0.78125 0.85938-1.9062 0.85938-3.375s-0.28906-2.5938-0.85938-3.375c-0.5625-0.78125-1.375-1.1719-2.4375-1.1719zm0-3.5c2.6328 0 4.6914 0.71484 6.1719 2.1406 1.4766 1.418 2.2188 3.3867 2.2188 5.9062 0 2.5117-0.74219 4.4805-2.2188 5.9062-1.4805 1.418-3.5391 2.125-6.1719 2.125-2.6484 0-4.7148-0.70703-6.2031-2.125-1.4922-1.4258-2.2344-3.3945-2.2344-5.9062 0-2.5195 0.74219-4.4883 2.2344-5.9062 1.4883-1.4258 3.5547-2.1406 6.2031-2.1406z"/>
  </symbol>
  <symbol id="q" overflow="visible">
   <path d="m16.547-12.766c0.61328-0.94531 1.3477-1.6719 2.2031-2.1719 0.85156-0.5 1.7891-0.75 2.8125-0.75 1.7578 0 3.0977 0.54688 4.0156 1.6406 0.92578 1.0859 1.3906 2.6562 1.3906 4.7188v9.3281h-4.9219v-7.9844-0.35938c0.007813-0.13281 0.015625-0.32031 0.015625-0.5625 0-1.082-0.16406-1.8633-0.48438-2.3438-0.3125-0.48828-0.82422-0.73438-1.5312-0.73438-0.92969 0-1.6484 0.38672-2.1562 1.1562-0.51172 0.76172-0.77344 1.8672-0.78125 3.3125v7.5156h-4.9219v-7.9844c0-1.6953-0.14844-2.7852-0.4375-3.2656-0.29297-0.48828-0.8125-0.73438-1.5625-0.73438-0.9375 0-1.6641 0.38672-2.1719 1.1562-0.51172 0.76172-0.76562 1.8594-0.76562 3.2969v7.5312h-4.9219v-15.312h4.9219v2.2344c0.60156-0.86328 1.2891-1.5156 2.0625-1.9531 0.78125-0.4375 1.6406-0.65625 2.5781-0.65625 1.0625 0 2 0.25781 2.8125 0.76562 0.8125 0.51172 1.4258 1.2305 1.8438 2.1562z"/>
  </symbol>
  <symbol id="p" overflow="visible">
   <path d="m17.75-9.3281v9.3281h-4.9219v-7.1094c0-1.3438-0.03125-2.2656-0.09375-2.7656s-0.16797-0.86719-0.3125-1.1094c-0.1875-0.3125-0.44922-0.55469-0.78125-0.73438-0.32422-0.17578-0.69531-0.26562-1.1094-0.26562-1.0234 0-1.8242 0.39844-2.4062 1.1875-0.58594 0.78125-0.875 1.8711-0.875 3.2656v7.5312h-4.8906v-21.281h4.8906v8.2031c0.73828-0.88281 1.5195-1.5391 2.3438-1.9688 0.83203-0.42578 1.75-0.64062 2.75-0.64062 1.7695 0 3.1133 0.54688 4.0312 1.6406 0.91406 1.0859 1.375 2.6562 1.375 4.7188z"/>
  </symbol>
  <symbol id="o" overflow="visible">
   <path d="m2.5781-20.406h5.875l7.4219 14v-14h4.9844v20.406h-5.875l-7.4219-14v14h-4.9844z"/>
  </symbol>
  <symbol id="n" overflow="visible">
   <path d="m2.5781-20.406h8.7344c2.5938 0 4.582 0.57812 5.9688 1.7344 1.3945 1.1484 2.0938 2.7891 2.0938 4.9219 0 2.1367-0.69922 3.7812-2.0938 4.9375-1.3867 1.1562-3.375 1.7344-5.9688 1.7344h-3.4844v7.0781h-5.25zm5.25 3.8125v5.7031h2.9219c1.0195 0 1.8047-0.25 2.3594-0.75 0.5625-0.5 0.84375-1.2031 0.84375-2.1094 0-0.91406-0.28125-1.6172-0.84375-2.1094-0.55469-0.48828-1.3398-0.73438-2.3594-0.73438z"/>
  </symbol>
  <symbol id="m" overflow="visible">
   <path d="m2.3594-15.312h4.8906v15.031c0 2.0508-0.49609 3.6172-1.4844 4.7031-0.98047 1.082-2.4062 1.625-4.2812 1.625h-2.4219v-3.2188h0.85938c0.92578 0 1.5625-0.21094 1.9062-0.625 0.35156-0.41797 0.53125-1.2461 0.53125-2.4844zm0-5.9688h4.8906v4h-4.8906z"/>
  </symbol>
  <symbol id="l" overflow="visible">
   <path d="m14.719-14.828v3.9844c-0.65625-0.45703-1.3242-0.79688-2-1.0156-0.66797-0.21875-1.3594-0.32812-2.0781-0.32812-1.3672 0-2.4336 0.40234-3.2031 1.2031-0.76172 0.79297-1.1406 1.9062-1.1406 3.3438 0 1.4297 0.37891 2.543 1.1406 3.3438 0.76953 0.79297 1.8359 1.1875 3.2031 1.1875 0.75781 0 1.4844-0.10938 2.1719-0.32812 0.6875-0.22656 1.3203-0.56641 1.9062-1.0156v4c-0.76172 0.28125-1.5391 0.48828-2.3281 0.625-0.78125 0.14453-1.5742 0.21875-2.375 0.21875-2.7617 0-4.9219-0.70703-6.4844-2.125-1.5547-1.4141-2.3281-3.3828-2.3281-5.9062 0-2.5312 0.77344-4.5039 2.3281-5.9219 1.5625-1.4141 3.7227-2.125 6.4844-2.125 0.80078 0 1.5938 0.074219 2.375 0.21875 0.78125 0.13672 1.5547 0.35156 2.3281 0.64062z"/>
  </symbol>
 </defs>
 <g>
  <path d="m198.8 240.8c0-27.793 22.605-50.398 50.398-50.398 8.8594 0 17.574 2.3281 25.195 6.7266 8.0312 4.6602 10.781 14.93 6.1367 22.953-4.6367 8.0547-14.93 10.797-22.953 6.1562-2.5547-1.4805-5.375-2.2383-8.3789-2.2383-9.2617 0-16.801 7.5312-16.801 16.801 0 5.9688 3.2266 11.562 8.418 14.57 8.0234 4.6602 10.754 14.945 6.0938 22.973-4.7031 8.1016-15.055 10.707-22.961 6.1055-15.512-9.0117-25.148-25.734-25.148-43.648z"/>
  <path d="m501.2 240.8c0 17.914-9.6367 34.637-25.148 43.641-8.1211 4.6758-18.34 1.8477-22.961-6.1055-4.6602-8.0234-1.9258-18.312 6.0938-22.973 5.1914-3 8.418-8.5938 8.418-14.562 0-9.2695-7.5391-16.801-16.801-16.801-3 0-5.8242 0.75781-8.3789 2.2305-8.0469 4.6094-18.316 1.9023-22.953-6.1562-4.6406-8.0234-1.8945-18.297 6.1367-22.953 7.6211-4.3906 16.336-6.7227 25.195-6.7227 27.793 0 50.398 22.609 50.398 50.402z"/>
  <path d="m546.53 276.05c16.594-45.219-0.51953-91.879-36.473-117.34 29.355-15.32 54.773-42.012 73.297-78.262 5.7031-11.156-2.3906-24.449-14.957-24.449h-84c-23.023 0-43.637 5.6562-61.887 14.145-39.766-41.02-104.86-41.445-145.03 0-18.25-8.4883-38.863-14.145-61.883-14.145h-84c-12.566 0-20.66 13.293-14.965 24.445 18.531 36.25 43.941 62.938 73.297 78.262-35.953 25.457-53.066 72.117-36.473 117.34-38.336 9.1406-50.742 55.195-25.418 82.82 13.703 14.941 39.391 37.723 72.684 46.305 1.2227 5.3984 3.1523 11.945 6.5312 19.227l-15.328 12.859c-7.1133 5.9688-8.043 16.57-2.0781 23.676 5.9297 7.0898 16.504 8.0547 23.664 2.082l12.938-10.852c7.957 8.1406 18.492 15.812 31.684 22.359l-7.3867 15.844c-3.9219 8.418-0.28516 18.406 8.1211 22.328 8.5078 3.9492 18.445 0.20312 22.328-8.1211l8.707-18.676c12.594 3.1523 26.953 5.293 43.281 6.1992v17.508c0 9.2852 7.5195 16.801 16.801 16.801 9.2773 0 16.801-7.5156 16.801-16.801v-17.516c16.328-0.90234 30.695-3.0469 43.281-6.1992l8.707 18.676c3.8789 8.3203 13.828 12.066 22.328 8.1211 8.4062-3.9219 12.039-13.91 8.1211-22.328l-7.3867-15.844c13.195-6.5391 23.727-14.211 31.684-22.359l12.938 10.852c7.1641 5.9648 17.734 5.0078 23.664-2.082 5.9648-7.1055 5.0352-17.703-2.0781-23.676l-15.328-12.859c3.375-7.2812 5.3086-13.828 6.5312-19.227 33.293-8.5859 58.98-31.367 72.684-46.305 25.34-27.617 12.938-73.676-25.402-82.809zm-27.188-34.918c0 36.43-36.348 66.871-46.145 66.871-12.297 0-35.125-29.793-78.941-43.602 9.6953-18.094 7.4648-37.902-3.5742-53.09 11.316-22.848 34.676-37.707 60.789-37.707 37.426 0 67.871 30.285 67.871 67.527zm-127-153.15c-33.227 24.27-32.938 35.113-42.34 35.113s-9.1172-10.836-42.34-35.113c24.969-20.223 59.711-20.215 84.68 0zm-230.72 1.625h53.984c45.289 0 80.488 28.609 102.03 52.617 16.492 18.375 48.25 18.375 64.742 0 21.535-24.008 56.738-52.617 102.02-52.617h53.984c-40.461 55.25-85.309 50.5-88.098 50.496-38.023-0.097656-70.051 20.699-87.496 52.148-9.3203-2.4648-16.273-2.457-25.582 0-17.445-31.449-49.469-52.246-87.496-52.152-2.7852 0.007812-47.637 4.7539-88.094-50.492zm188.38 168c-22.23 0-22.223-33.602 0-33.602s22.23 33.602 0 33.602zm-101.47-84c26.113 0 49.469 14.863 60.789 37.711-11.043 15.188-13.266 34.996-3.5742 53.09-43.82 13.805-66.645 43.598-78.941 43.598-9.793 0-46.145-30.441-46.145-66.871 0-37.242 30.445-67.527 67.871-67.527zm101.48 285.6h-0.007812c-79.453 0-105.18-31.008-113.54-50.98 8.4453-0.73438 16.219-2.3516 23.398-4.6211 11.465 23.75 28.719 38.801 90.145 38.801s78.68-15.055 90.156-38.801c7.1797 2.2695 14.953 3.8867 23.398 4.6211-8.3633 19.973-34.098 50.98-113.55 50.98zm-59.777-69.898c26.727-16.781 36.555-30.902 59.773-30.902s33.047 14.117 59.773 30.902c-6.4297 12.965-16.07 19.5-59.773 19.5s-53.344-6.5352-59.773-19.5zm256.96-53.148c-13.375 14.586-40.781 39.047-73.988 39.047-54.465 0-67.77-50.398-123.2-50.398s-68.738 50.398-123.2 50.398c-33.207 0-60.613-24.461-73.98-39.047-15.059-16.426 9.8008-39.039 24.773-22.707 16.375 17.883 34.316 28.156 49.207 28.156 36.676 0 56.867-50.398 123.2-50.398s86.531 50.398 123.2 50.398c14.891 0 32.828-10.27 49.211-28.152 14.977-16.328 39.836 6.2812 24.777 22.703z"/>
  <use x="70" y="644" xlink:href="#u"/>
  <use x="90.550781" y="644" xlink:href="#b"/>
  <use x="104.359375" y="644" xlink:href="#a"/>
  <use x="123.347656" y="644" xlink:href="#d"/>
  <use x="142.242188" y="644" xlink:href="#c"/>
  <use x="155.628906" y="644" xlink:href="#a"/>
  <use x="174.617188" y="644" xlink:href="#k"/>
  <use x="204.410156" y="644" xlink:href="#g"/>
  <use x="224.453125" y="644" xlink:href="#f"/>
  <use x="252.453125" y="644" xlink:href="#j"/>
  <use x="274.121094" y="644" xlink:href="#f"/>
  <use x="292.375" y="644" xlink:href="#i"/>
  <use x="312.304688" y="644" xlink:href="#g"/>
  <use x="342.097656" y="644" xlink:href="#t"/>
  <use x="352.515625" y="644" xlink:href="#b"/>
  <use x="366.324219" y="644" xlink:href="#d"/>
  <use x="385.21875" y="644" xlink:href="#s"/>
  <use x="411.085938" y="644" xlink:href="#d"/>
  <use x="429.980469" y="644" xlink:href="#h"/>
  <use x="70" y="672" xlink:href="#r"/>
  <use x="82.183594" y="672" xlink:href="#b"/>
  <use x="95.992188" y="672" xlink:href="#e"/>
  <use x="115.226562" y="672" xlink:href="#q"/>
  <use x="154.152344" y="672" xlink:href="#c"/>
  <use x="167.535156" y="672" xlink:href="#p"/>
  <use x="187.46875" y="672" xlink:href="#a"/>
  <use x="216.207031" y="672" xlink:href="#o"/>
  <use x="239.640625" y="672" xlink:href="#e"/>
  <use x="258.878906" y="672" xlink:href="#i"/>
  <use x="278.8125" y="672" xlink:href="#h"/>
  <use x="308.492188" y="672" xlink:href="#n"/>
  <use x="329.015625" y="672" xlink:href="#b"/>
  <use x="342.820312" y="672" xlink:href="#e"/>
  <use x="362.058594" y="672" xlink:href="#m"/>
  <use x="371.65625" y="672" xlink:href="#a"/>
  <use x="390.648438" y="672" xlink:href="#l"/>
  <use x="407.242188" y="672" xlink:href="#c"/>
 </g>
</svg>
